# xmcd
#
# Track frame offsets:
#	150
#	16290
#	32010
#	53758
#	65623
#	83248
#	100465
#	113925
#	129188
#	141538
#	158455
#	169178
#	181888
#
# Disc length: 2702 seconds
#
# Revision: 4
# Processed by: cddbd v1.5.2PL0 Copyright (c) Steve Scherf et al.
# Submitted via: EasyCDDAExtractor 2011.0.0.0
#
DISCID=a90a8c0d
DTITLE=Nitty Gritty Dirt Band - Nitty Gritty Dirt Band - Greatest Hits
DYEAR=1990
DGENRE=Country
TTITLE0=Mr. Bojangles
TTITLE1=An American Dream
TTITLE2=Will the Circle be Unbroken
TTITLE3=House at Pooh Corner
TTITLE4=Make a Little Magic
TTITLE5=All I Have to Do is Dream
TTITLE6=Grand Ole Opry Song
TTITLE7=Jambalaya
TTITLE8=Battle of New Orleans
TTITLE9=I Saw the Light
TTITLE10=Buy For Me the Rain
TTITLE11=Some fo Shelly's Blues
TTITLE12=Fire in the Sky
EXTD=YEAR: 1990
EXTT0=
EXTT1=
EXTT2=
EXTT3=
EXTT4=
EXTT5=
EXTT6=
EXTT7=
EXTT8=
EXTT9=
EXTT10=
EXTT11=
EXTT12=
PLAYORDER=
